<svg xmlns="http://www.w3.org/2000/svg" version="1.1" xmlns:xlink="http://www.w3.org/1999/xlink" xmlns:svgjs="http://svgjs.dev/svgjs" width="2000" height="363" viewBox="0 0 2000 363"><g transform="matrix(1,0,0,1,-1.212120762200584,1.2159486598528986)"><svg viewBox="0 0 396 72" data-background-color="#ffffff" preserveAspectRatio="xMidYMid meet" height="363" width="2000" xmlns="http://www.w3.org/2000/svg" xmlns:xlink="http://www.w3.org/1999/xlink"><defs></defs><g id="tight-bounds" transform="matrix(1,0,0,1,0.240000089084333,-0.24117989947495744)"><svg viewBox="0 0 395.52 72.48235979894994" height="72.48235979894994" width="395.52"><g><svg viewBox="0 0 503.56677745749937 92.2828386591632" height="72.48235979894994" width="395.52"><g transform="matrix(1,0,0,1,0,12.753995791534138)"><svg viewBox="0 0 395.52 66.77484707609493" height="66.77484707609493" width="395.52"><g><svg viewBox="0 0 395.52 66.77484707609493" height="66.77484707609493" width="395.52"><g><svg viewBox="0 0 395.52 66.77484707609493" height="66.77484707609493" width="395.52"><g transform="matrix(1,0,0,1,0,0)"><svg width="395.52" viewBox="3.130000114440918 -33.08000183105469 199.5399932861328 33.69000244140625" height="66.77484707609493" data-palette-color="#3fa1f6"><path d="M23.8-30.66L23.8-30.66 23.34-23.49 23.17-23.44Q21.36-26.15 17.02-26.95L17.02-26.95Q15.65-27.22 14.39-27.22 13.13-27.22 12.24-27 11.35-26.78 10.72-26.37L10.72-26.37Q9.38-25.49 9.38-24.07L9.38-24.07Q9.38-22.22 10.55-21.29L10.55-21.29Q12.01-20.17 15.41-19.71 18.8-19.26 20.85-18.48 22.9-17.7 24.22-16.5L24.22-16.5Q26.71-14.26 26.71-10.16L26.71-10.16Q26.71-4.79 22.66-1.88L22.66-1.88Q19.19 0.61 13.92 0.61L13.92 0.61Q9.67 0.61 5.52-1L5.52-1Q4.15-1.54 3.13-2.25L3.13-2.25 3.39-10.4 3.49-10.47Q6.52-5.25 13.43-5.25L13.43-5.25Q18.33-5.25 19.92-7.62L19.92-7.62Q20.46-8.42 20.46-9.41 20.46-10.4 20.14-11.05 19.82-11.69 19.09-12.16L19.09-12.16Q17.68-13.09 14.33-13.4 10.99-13.72 8.86-14.6 6.74-15.48 5.47-16.77L5.47-16.77Q3.17-19.12 3.17-23.32L3.17-23.32Q3.17-27.66 6.23-30.35L6.23-30.35Q9.33-33.08 14.59-33.08 19.85-33.08 23.8-30.66ZM35.98-3.86Q33.76-5.98 32.48-8.96 31.2-11.94 31.2-15.49 31.2-19.04 32.39-22.22 33.59-25.39 35.81-27.81 38.03-30.22 41.18-31.65 44.33-33.08 48.24-33.08L48.24-33.08Q54.98-33.08 59.59-28.83L59.59-28.83Q64.52-24.29 64.52-16.58L64.52-16.58Q64.52-9.11 59.45-4.15L59.45-4.15Q56.32-1.1 52 0.05L52 0.05Q49.88 0.61 47.03 0.61 44.19 0.61 41.2-0.56 38.21-1.73 35.98-3.86ZM37.99-15.82L37.99-15.82Q37.99-13.55 38.74-11.65 39.5-9.74 40.84-8.37L40.84-8.37Q43.7-5.49 48.19-5.49L48.19-5.49Q52.46-5.49 55.05-8.25L55.05-8.25Q57.69-11.11 57.69-16.04L57.69-16.04Q57.69-20.68 55.17-23.78L55.17-23.78Q52.46-27.1 47.75-27.1L47.75-27.1Q43.19-27.1 40.5-23.73L40.5-23.73Q37.99-20.58 37.99-15.82ZM87.84-20.07L87.91-14.04Q86.74-14.16 84.88-14.16L84.88-14.16 77.49-14.16 77.49 0 70.8 0 70.8-32.64Q71.45-32.59 72.31-32.57L72.31-32.57 74.12-32.52Q75.97-32.47 77.97-32.47L77.97-32.47Q83.98-32.47 89.45-32.67L89.45-32.67Q89.18-30.52 89.18-26.93L89.18-26.93Q89.18-26.54 89.23-26.34L89.23-26.34 89.18-26.27Q87.89-26.64 85.57-26.64L85.57-26.64 77.49-26.64 77.49-19.92 84.61-19.92Q87.3-19.92 87.84-20.07L87.84-20.07ZM107.46-27L107.46 0.15Q106.29 0 101.43 0L101.43 0 100.65 0 100.65-27 95.82-27Q93.67-27 93.28-26.78 92.89-26.56 92.67-26.39L92.67-26.39 92.6-26.42 92.6-32.67 92.67-32.74Q93.47-32.47 97.01-32.47L97.01-32.47 112.32-32.47Q114.47-32.47 114.86-32.69 115.25-32.91 115.47-33.08L115.47-33.08 115.54-33.06 115.54-26.81 115.47-26.73Q114.67-27 111.13-27L111.13-27 107.46-27ZM140.4-30.66L140.4-30.66 139.93-23.49 139.76-23.44Q137.95-26.15 133.61-26.95L133.61-26.95Q132.24-27.22 130.98-27.22 129.73-27.22 128.84-27 127.94-26.78 127.31-26.37L127.31-26.37Q125.97-25.49 125.97-24.07L125.97-24.07Q125.97-22.22 127.14-21.29L127.14-21.29Q128.6-20.17 132-19.71 135.39-19.26 137.44-18.48 139.49-17.7 140.81-16.5L140.81-16.5Q143.3-14.26 143.3-10.16L143.3-10.16Q143.3-4.79 139.25-1.88L139.25-1.88Q135.78 0.61 130.51 0.61L130.51 0.61Q126.26 0.61 122.11-1L122.11-1Q120.74-1.54 119.72-2.25L119.72-2.25 119.99-10.4 120.08-10.47Q123.11-5.25 130.02-5.25L130.02-5.25Q134.93-5.25 136.51-7.62L136.51-7.62Q137.05-8.42 137.05-9.41 137.05-10.4 136.73-11.05 136.42-11.69 135.68-12.16L135.68-12.16Q134.27-13.09 130.92-13.4 127.58-13.72 125.45-14.6 123.33-15.48 122.06-16.77L122.06-16.77Q119.77-19.12 119.77-23.32L119.77-23.32Q119.77-27.66 122.82-30.35L122.82-30.35Q125.92-33.08 131.18-33.08 136.44-33.08 140.4-30.66ZM152.58-3.86Q150.35-5.98 149.07-8.96 147.79-11.94 147.79-15.49 147.79-19.04 148.99-22.22 150.18-25.39 152.4-27.81 154.63-30.22 157.78-31.65 160.93-33.08 164.83-33.08L164.83-33.08Q171.57-33.08 176.18-28.83L176.18-28.83Q181.12-24.29 181.12-16.58L181.12-16.58Q181.12-9.11 176.04-4.15L176.04-4.15Q172.91-1.1 168.59 0.05L168.59 0.05Q166.47 0.61 163.62 0.61 160.78 0.61 157.79-0.56 154.8-1.73 152.58-3.86ZM154.58-15.82L154.58-15.82Q154.58-13.55 155.33-11.65 156.09-9.74 157.43-8.37L157.43-8.37Q160.29-5.49 164.78-5.49L164.78-5.49Q169.05-5.49 171.64-8.25L171.64-8.25Q174.28-11.11 174.28-16.04L174.28-16.04Q174.28-20.68 171.76-23.78L171.76-23.78Q169.05-27.1 164.34-27.1L164.34-27.1Q159.78-27.1 157.09-23.73L157.09-23.73Q154.58-20.58 154.58-15.82ZM194.47 0L192.15 0Q188.56 0 187.39 0.15L187.39 0.15 187.39-32.62Q187.97-32.47 189.82-32.47 191.66-32.47 194.1-32.57L194.1-32.57 194.1-5.86 199.15-5.86Q201.35-5.86 202.67-6.01L202.67-6.01Q202.5-0.29 202.5-0.07L202.5-0.07 202.5 0.17Q200.11 0 194.47 0L194.47 0Z" opacity="1" transform="matrix(1,0,0,1,0,0)" fill="#3fa1f6" class="undefined-text-0" data-fill-palette-color="primary" id="text-0"></path></svg></g></svg></g></svg></g></svg></g><g transform="matrix(1,0,0,1,411.2839387983362,0)"><svg viewBox="0 0 92.2828386591632 92.2828386591632" height="92.2828386591632" width="92.2828386591632"><g data-palette-color="#439be8"><rect width="25.22397590017128" height="92.2828386591632" fill="#439be8" stroke="transparent" data-fill-palette-color="accent" x="0" fill-opacity="1"></rect><rect width="25.22397590017128" height="92.2828386591632" fill="#439be8" stroke="transparent" data-fill-palette-color="accent" x="30.76094621972107" fill-opacity="0.75"></rect><rect width="25.22397590017128" height="92.2828386591632" fill="#439be8" stroke="transparent" data-fill-palette-color="accent" x="61.52189243944214" fill-opacity="0.5"></rect></g></svg></g></svg></g></svg><rect width="395.52" height="72.48235979894994" fill="none" stroke="none" visibility="hidden"></rect></g></svg></g></svg>