<svg xmlns="http://www.w3.org/2000/svg" version="1.1" xmlns:xlink="http://www.w3.org/1999/xlink" xmlns:svgjs="http://svgjs.dev/svgjs" width="2000" height="1247" viewBox="0 0 2000 1247"><g transform="matrix(1,0,0,1,-1.2121206578160582,0.504858299595071)"><svg viewBox="0 0 396 247" data-background-color="#ffffff" preserveAspectRatio="xMidYMid meet" height="100.2" width="2000" xmlns="http://www.w3.org/2000/svg" xmlns:xlink="http://www.w3.org/1999/xlink"><defs></defs><g id="tight-bounds" transform="matrix(1,0,0,1,0.24000010975248642,-0.09999999999999432)"><svg viewBox="0 0 395.52 247.2" height="247.2" width="395.52"><g><svg></svg></g><g><svg viewBox="0 0 395.52 247.2" height="100.2" width="395.52"><g><path d="M119.063 240.629l-3.622-54.078h14.602c1.204 3.257 2.613 6.367 4.227 9.332 4.047 7.51 9.158 13.872 15.333 19.087 6.133 5.215 13.226 9.22 21.278 12.016 8.011 2.837 16.709 4.256 26.097 4.256 15.437 0 27.641-3.651 36.61-10.952 8.97-7.301 13.455-17.21 13.456-29.727 0-1.366-0.06-2.703-0.181-4.012h33.56c-0.938 6.498-2.781 12.633-5.53 18.406-4.172 8.762-10.013 16.271-17.523 22.53-7.51 6.258-16.48 11.098-26.911 14.519-10.43 3.463-21.904 5.194-34.42 5.194-11.891 0-22.571-1.669-32.042-5.007-9.513-3.338-19.171-8.97-28.976-16.897l-8.761 15.333zM129.577 39.74c3.421-8.136 8.261-15.166 14.519-21.09 6.258-5.966 13.664-10.576 22.216-13.831 8.553-3.213 17.94-4.819 28.162-4.819 9.179 0 17.732 1.46 25.659 4.381 7.927 2.921 15.958 7.614 24.094 14.081l8.136-14.081h7.197l3.11 56.268-13.156 0c-4.876-14.112-11.478-24.837-19.806-32.174-9.513-8.344-20.944-12.516-34.295-12.517-12.725 0-22.843 3.129-30.352 9.388-7.51 6.258-11.265 14.707-11.265 25.346 0 3.562 0.422 6.881 1.267 9.957l-30.472 0c0.555-7.436 2.217-14.406 4.986-20.909z" fill="#0080ff" data-fill-palette-color="tertiary"></path></g><g transform="matrix(1,0,0,1,0,74.870636550308)"><svg viewBox="0 0 395.52 97.45872689938398" height="97.45872689938398" width="395.52"><g><svg viewBox="0 0 395.52 97.45872689938398" height="97.45872689938398" width="395.52"><g><svg viewBox="0 0 395.52 97.45872689938398" height="97.45872689938398" width="395.52"><g><svg viewBox="0 0 395.52 97.45872689938398" height="97.45872689938398" width="395.52"><g><svg viewBox="0 0 395.52 97.45872689938398" height="97.45872689938398" width="395.52"><g><svg viewBox="0 0 395.52 97.45872689938398" height="97.45872689938398" width="395.52"><g transform="matrix(1,0,0,1,0,0)"><svg width="395.52" viewBox="2.9000000953674316 -41.5 171.8400115966797 42" height="97.45872689938398" data-palette-color="#0080ff"><path d="M3.65-0.55L2.9-11.75 4.75-11.75Q5.1-9.5 6.08-7.7 7.05-5.9 8.53-4.65 10-3.4 11.93-2.73 13.85-2.05 16.1-2.05L16.1-2.05Q19.8-2.05 21.95-3.8 24.1-5.55 24.1-8.55L24.1-8.55Q24.1-9.8 23.68-10.85 23.25-11.9 22.25-12.88 21.25-13.85 19.58-14.8 17.9-15.75 15.35-16.85L15.35-16.85Q12.25-18.2 10.15-19.45 8.05-20.7 6.8-22.05 5.55-23.4 5.03-24.93 4.5-26.45 4.5-28.4L4.5-28.4Q4.5-30.7 5.33-32.65 6.15-34.6 7.65-36.02 9.15-37.45 11.2-38.23 13.25-39 15.7-39L15.7-39Q17.9-39 19.8-38.3 21.7-37.6 23.65-36.05L23.65-36.05 24.95-38.3 26.1-38.3 26.65-28.35 24.8-28.35Q23.6-32.45 21.33-34.45 19.05-36.45 15.85-36.45L15.85-36.45Q12.8-36.45 11-34.95 9.2-33.45 9.2-30.9L9.2-30.9Q9.2-29.7 9.6-28.73 10-27.75 10.9-26.88 11.8-26 13.25-25.13 14.7-24.25 16.85-23.3L16.85-23.3Q20.55-21.65 23-20.23 25.45-18.8 26.9-17.38 28.35-15.95 28.95-14.38 29.55-12.8 29.55-10.85L29.55-10.85Q29.55-8.35 28.55-6.25 27.55-4.15 25.75-2.65 23.95-1.15 21.45-0.33 18.95 0.5 15.95 0.5L15.95 0.5Q13.1 0.5 10.83-0.3 8.55-1.1 6.2-3L6.2-3 4.8-0.55 3.65-0.55ZM48.5-27L48.5-27Q51.35-27 53.9-25.98 56.45-24.95 58.37-23.15 60.3-21.35 61.42-18.88 62.55-16.4 62.55-13.45L62.55-13.45Q62.55-10.4 61.42-7.85 60.3-5.3 58.37-3.45 56.45-1.6 53.9-0.55 51.35 0.5 48.5 0.5L48.5 0.5Q45.7 0.5 43.17-0.53 40.65-1.55 38.75-3.4 36.85-5.25 35.75-7.83 34.65-10.4 34.65-13.45L34.65-13.45Q34.65-16.4 35.75-18.9 36.85-21.4 38.75-23.2 40.65-25 43.17-26 45.7-27 48.5-27ZM48.5-24.6L48.5-24.6Q46.65-24.6 45.12-23.8 43.6-23 42.52-21.53 41.45-20.05 40.87-17.98 40.3-15.9 40.3-13.4L40.3-13.4Q40.3-10.8 40.87-8.7 41.45-6.6 42.52-5.13 43.6-3.65 45.1-2.85 46.6-2.05 48.5-2.05L48.5-2.05Q50.4-2.05 51.95-2.85 53.5-3.65 54.6-5.15 55.7-6.65 56.3-8.75 56.9-10.85 56.9-13.4L56.9-13.4Q56.9-15.9 56.3-17.95 55.7-20 54.6-21.48 53.5-22.95 51.95-23.78 50.4-24.6 48.5-24.6ZM66.05-23.35L66.05-25.7 71.7-25.7 71.7-29.3Q71.7-35.05 74.72-38.27 77.75-41.5 83.35-41.5L83.35-41.5Q86.45-41.5 88.4-40.55 90.35-39.6 90.35-38.1L90.35-38.1Q90.35-37.1 89.72-36.43 89.1-35.75 88.15-35.75L88.15-35.75Q87.55-35.75 86.87-36.13 86.2-36.5 85.1-37.4L85.1-37.4Q83.85-38.45 83.15-38.78 82.45-39.1 81.5-39.1L81.5-39.1Q78.5-39.1 77.2-36.05L77.2-36.05Q76.75-35.05 76.57-33.6 76.4-32.15 76.4-29.6L76.4-29.6 76.4-25.7 84.45-25.7 84.45-23.35 76.4-23.35 76.4-8.05Q76.4-6.2 76.62-5 76.85-3.8 77.42-3.08 78-2.35 79-2.08 80-1.8 81.6-1.75L81.6-1.75 81.6 0 67.4 0 67.4-1.75Q68.8-1.8 69.65-2.02 70.5-2.25 70.95-2.88 71.4-3.5 71.55-4.63 71.7-5.75 71.7-7.65L71.7-7.65 71.7-23.35 66.05-23.35ZM90.54-23.35L87.54-23.35 87.54-25.2Q90.19-26.75 91.69-28.3 93.19-29.85 93.99-32L93.99-32 95.44-32 95.44-25.7 102.14-25.7 102.14-23.35 95.44-23.35 95.44-8.15Q95.44-6.4 95.62-5.2 95.79-4 96.19-3.28 96.59-2.55 97.24-2.25 97.89-1.95 98.89-1.95L98.89-1.95Q100.14-1.95 101.02-2.48 101.89-3 102.74-4.25L102.74-4.25 103.99-3.3Q103.29-1.45 101.57-0.48 99.84 0.5 97.29 0.5L97.29 0.5Q93.99 0.5 92.27-1.07 90.54-2.65 90.54-5.6L90.54-5.6 90.54-23.35ZM109.74-1.75L108.74 0 107.64 0 107.64-8.6 108.89-8.6Q110.84-1.55 115.99-1.55L115.99-1.55Q117.99-1.55 119.17-2.53 120.34-3.5 120.34-5.5L120.34-5.5Q120.34-6.25 120.12-6.78 119.89-7.3 119.27-7.88 118.64-8.45 117.52-9.2 116.39-9.95 114.54-11.1L114.54-11.1Q112.84-12.15 111.59-13.05 110.34-13.95 109.49-14.88 108.64-15.8 108.22-16.85 107.79-17.9 107.79-19.3L107.79-19.3Q107.79-21 108.37-22.43 108.94-23.85 109.94-24.85 110.94-25.85 112.29-26.43 113.64-27 115.24-27L115.24-27Q116.59-27 118.04-26.58 119.49-26.15 120.59-25.45L120.59-25.45 121.59-26.5 122.54-26.5 122.54-19.3 121.24-19.3Q120.14-22.35 118.84-23.65 117.54-24.95 115.64-24.95L115.64-24.95Q113.94-24.95 112.92-24.05 111.89-23.15 111.89-21.55L111.89-21.55Q111.89-20.7 112.17-20.08 112.44-19.45 113.04-18.85 113.64-18.25 114.57-17.63 115.49-17 116.79-16.2L116.79-16.2Q118.94-14.85 120.47-13.8 121.99-12.75 122.94-11.73 123.89-10.7 124.34-9.6 124.79-8.5 124.79-7.1L124.79-7.1Q124.79-3.55 122.49-1.53 120.19 0.5 116.44 0.5L116.44 0.5Q112.54 0.5 109.74-1.75L109.74-1.75ZM143.39-27L143.39-27Q146.24-27 148.79-25.98 151.34-24.95 153.26-23.15 155.19-21.35 156.31-18.88 157.44-16.4 157.44-13.45L157.44-13.45Q157.44-10.4 156.31-7.85 155.19-5.3 153.26-3.45 151.34-1.6 148.79-0.55 146.24 0.5 143.39 0.5L143.39 0.5Q140.59 0.5 138.06-0.53 135.54-1.55 133.64-3.4 131.74-5.25 130.64-7.83 129.54-10.4 129.54-13.45L129.54-13.45Q129.54-16.4 130.64-18.9 131.74-21.4 133.64-23.2 135.54-25 138.06-26 140.59-27 143.39-27ZM143.39-24.6L143.39-24.6Q141.54-24.6 140.01-23.8 138.49-23 137.41-21.53 136.34-20.05 135.76-17.98 135.19-15.9 135.19-13.4L135.19-13.4Q135.19-10.8 135.76-8.7 136.34-6.6 137.41-5.13 138.49-3.65 139.99-2.85 141.49-2.05 143.39-2.05L143.39-2.05Q145.29-2.05 146.84-2.85 148.39-3.65 149.49-5.15 150.59-6.65 151.19-8.75 151.79-10.85 151.79-13.4L151.79-13.4Q151.79-15.9 151.19-17.95 150.59-20 149.49-21.48 148.39-22.95 146.84-23.78 145.29-24.6 143.39-24.6ZM170.29-41.5L170.29-7.8Q170.29-5.9 170.44-4.75 170.59-3.6 171.06-2.95 171.54-2.3 172.41-2.05 173.29-1.8 174.74-1.75L174.74-1.75 174.74 0 160.94 0 160.94-1.75Q162.44-1.8 163.34-2.08 164.24-2.35 164.76-2.95 165.29-3.55 165.46-4.63 165.64-5.7 165.64-7.45L165.64-7.45 165.64-29Q165.64-31.7 165.56-33.52 165.49-35.35 165.34-36L165.34-36Q165.09-37.15 164.16-37.55 163.24-37.95 160.84-37.95L160.84-37.95 160.84-39.65 170.29-41.5Z" opacity="1" transform="matrix(1,0,0,1,0,0)" fill="#0080ff" class="undefined-text-0" data-fill-palette-color="primary" id="text-0"></path></svg></g></svg></g></svg></g></svg></g><g></g></svg></g></svg></g></svg></g></svg></g></svg><rect width="395.52" height="247.2" fill="none" stroke="none" visibility="hidden"></rect></g></svg></g></svg>