<svg xmlns="http://www.w3.org/2000/svg" version="1.1" xmlns:xlink="http://www.w3.org/1999/xlink" xmlns:svgjs="http://svgjs.dev/svgjs" width="2000" height="535" viewBox="0 0 2000 535"><g transform="matrix(1,0,0,1,-1.2121210386329722,1.0291963910378286)"><svg viewBox="0 0 396 106" data-background-color="#ffffff" preserveAspectRatio="xMidYMid meet" height="535" width="2000" xmlns="http://www.w3.org/2000/svg" xmlns:xlink="http://www.w3.org/1999/xlink"><defs></defs><g id="tight-bounds" transform="matrix(1,0,0,1,0.24000003435065764,-0.20391554663552824)"><svg viewBox="0 0 395.52 106.40783109327108" height="106.40783109327108" width="395.52"><g><svg viewBox="0 0 574.9734895651702 154.6866958959327" height="106.40783109327108" width="395.52"><g><rect width="6.251456587980255" height="112.48923977960372" x="411.88506960204256" y="21.09872805816449" fill="#e65728" opacity="1" stroke-width="0" stroke="transparent" fill-opacity="1" class="rect-o-0" data-fill-palette-color="primary" rx="1%" id="o-0" data-palette-color="#e65728"></rect></g><g transform="matrix(1,0,0,1,0,21.378552037715735)"><svg viewBox="0 0 395.52 111.92959182050123" height="111.92959182050123" width="395.52"><g><svg viewBox="0 0 395.52 111.92959182050123" height="111.92959182050123" width="395.52"><g><svg viewBox="0 0 395.52 69.3211914893617" height="69.3211914893617" width="395.52"><g transform="matrix(1,0,0,1,0,0)"><svg width="395.52" viewBox="1.7000000476837158 -32.5 188.83999633789062 32.95000076293945" height="69.3211914893617" data-palette-color="#e65728"><g class="undefined-text-0" data-fill-palette-color="primary" id="text-0"><path d="M17.8-32.45Q22.85-32.45 27.2-30.3L27.2-30.3 26.15-25.5 25.6-25.45Q23.15-26.9 21.15-27.53 19.15-28.15 16.95-28.15L16.95-28.15Q11.95-28.15 9.5-25.13 7.05-22.1 7.05-15.6L7.05-15.6Q7.05-9.4 9.35-6.63 11.65-3.85 16.65-3.85L16.65-3.85Q17.9-3.85 19.13-4.08 20.35-4.3 22.2-4.85L22.2-4.85 22.35-8.1 22.2-13.05 27.05-13.4 26.95-8.9 27.1-1.55Q20.9 0.4 16.35 0.4L16.35 0.4Q9 0.4 5.35-3.68 1.7-7.75 1.7-15.35L1.7-15.35Q1.7-23.65 5.88-28.05 10.05-32.45 17.8-32.45L17.8-32.45ZM53.5-32.1L53.8-31.65 53.5-27.75 47.7-28.05 45-28.05 44.75-10.1 45 0 39.8 0 40.1-9.65 39.85-28.05 37.15-28.05 31.25-27.75 30.9-28.2 31.3-32.1 53.5-32.1ZM68.4-32.45Q72.2-32.45 76-30.85L76-30.85 75.15-26.15 74.35-25.85Q72.75-27 71.05-27.65 69.35-28.3 67.8-28.3L67.8-28.3Q65.35-28.3 63.9-26.95 62.45-25.6 62.45-23.8L62.45-23.8Q62.45-22.05 63.9-20.93 65.35-19.8 68.45-18.35L68.45-18.35Q71.15-17.05 72.82-16 74.5-14.95 75.7-13.23 76.9-11.5 76.9-9.1L76.9-9.1Q76.9-6.5 75.47-4.33 74.05-2.15 71.47-0.88 68.9 0.4 65.6 0.4L65.6 0.4Q63.4 0.4 61.05-0.15 58.7-0.7 56.6-1.75L56.6-1.75 57.25-6.85 57.9-7.15Q59.75-5.4 61.97-4.53 64.2-3.65 66.1-3.65L66.1-3.65Q68.7-3.65 70.25-5.03 71.8-6.4 71.8-8.3L71.8-8.3Q71.8-10.2 70.3-11.38 68.8-12.55 65.7-14L65.7-14Q63.05-15.25 61.4-16.28 59.75-17.3 58.57-19 57.4-20.7 57.4-23.1L57.4-23.1Q57.4-25.7 58.8-27.85 60.2-30 62.7-31.23 65.2-32.45 68.4-32.45L68.4-32.45ZM95.19-32.45Q100.09-32.45 103.84-30.25L103.84-30.25 102.89-25.7 102.39-25.55Q99.04-28.15 94.99-28.15L94.99-28.15Q90.59-28.15 88.27-25.18 85.94-22.2 85.94-16.3L85.94-16.3Q85.94-10.25 88.29-7.1 90.64-3.95 94.99-3.95L94.99-3.95Q97.09-3.95 99.17-4.67 101.24-5.4 102.99-6.7L102.99-6.7 103.49-6.4 103.09-1.7Q98.79 0.4 94.59 0.4L94.59 0.4Q87.84 0.4 84.19-3.8 80.54-8 80.54-15.75L80.54-15.75Q80.54-23.75 84.37-28.1 88.19-32.45 95.19-32.45L95.19-32.45ZM121.19-32.5Q127.84-32.5 131.44-28.4 135.04-24.3 135.04-16.7L135.04-16.7Q135.04-8.5 131.19-4.03 127.34 0.45 120.24 0.45L120.24 0.45Q113.64 0.45 110.07-3.78 106.49-8 106.49-15.75L106.49-15.75Q106.49-23.8 110.32-28.15 114.14-32.5 121.19-32.5L121.19-32.5ZM120.79-28.3Q116.24-28.3 114.02-25.38 111.79-22.45 111.79-16.35L111.79-16.35Q111.79-9.7 113.97-6.63 116.14-3.55 120.69-3.55L120.69-3.55Q125.29-3.55 127.49-6.5 129.69-9.45 129.69-15.7L129.69-15.7Q129.69-22.25 127.52-25.28 125.34-28.3 120.79-28.3L120.79-28.3ZM155.74-12.85Q159.14-7.4 163.79-1.2L163.79-1.2 163.74-0.6Q161.34 0.2 158.79 0.45L158.79 0.45 158.19 0.05Q154.04-6.75 151.49-11.45L151.49-11.45 146.04-11.45 146.04-10.1 146.29 0 141.04 0 141.39-9.65 141.04-32.1 151.94-32.15Q156.79-32.15 159.44-29.73 162.09-27.3 162.09-22.8L162.09-22.8Q162.09-19.6 160.41-17.03 158.74-14.45 155.74-12.85L155.74-12.85ZM146.29-27.95L146.14-15.65 151.64-15.5Q156.69-17.05 156.69-22.4L156.69-22.4Q156.69-25.2 155.16-26.6 153.64-28 150.54-28.1L150.54-28.1 146.29-27.95ZM180.44-32.15Q185.29-32.15 187.91-29.68 190.54-27.2 190.54-22.55L190.54-22.55Q190.54-17.15 187.21-14 183.89-10.85 178.09-10.85L178.09-10.85 174.54-10.85 174.54-10.1 174.79 0 169.54 0 169.89-9.65 169.54-32.1 180.44-32.15ZM179.59-14.85Q182.34-15.4 183.76-17.23 185.19-19.05 185.19-22.1L185.19-22.1Q185.19-25.1 183.66-26.55 182.14-28 179.04-28.1L179.04-28.1 174.79-27.95 174.59-14.95 179.59-14.85Z" fill="#e65728" data-fill-palette-color="primary"></path></g></svg></g></svg></g><g transform="matrix(1,0,0,1,163.310208,85.68626109140425)"><svg viewBox="0 0 232.209792 26.24333072909699" height="26.24333072909699" width="232.209792"><g transform="matrix(1,0,0,1,0,0)"><svg width="232.209792" viewBox="1.340000033378601 -39.11000061035156 350.3600158691406 39.60000228881836" height="26.24333072909699" data-palette-color="#e65728"><path d="M19.02-31.47L19.02 0 12.94 0 12.94-31.47 1.34-31.47 2.15-35.77 30.98-35.77 30.18-31.47 19.02-31.47ZM32.39 0L32.39-25.88 37.18-25.88 38.01-18.16Q38.35-18.8 38.72-19.47 39.08-20.14 39.45-20.76 39.82-21.39 40.13-21.9 40.45-22.41 40.67-22.75L40.67-22.75Q41.18-23.51 41.83-24.18 42.48-24.85 43.23-25.33 43.99-25.81 44.87-26.09 45.75-26.37 46.77-26.37L46.77-26.37Q47.48-26.37 48.19-26.2 48.9-26.03 49.39-25.66L49.39-25.66 48.75-20.21Q48.31-20.34 47.73-20.37 47.14-20.41 46.68-20.41L46.68-20.41Q45.11-20.41 43.89-19.96 42.67-19.51 41.68-18.71 40.7-17.92 39.88-16.85 39.06-15.77 38.3-14.53L38.3-14.53 38.3 0 32.39 0ZM68.65-3.81L68.65-3.81Q68.01-3.27 67.12-2.53 66.23-1.78 65.14-1.11 64.06-0.44 62.78 0.02 61.49 0.49 60.08 0.49L60.08 0.49Q58.64 0.49 57.4-0.04 56.17-0.56 55.26-1.5 54.34-2.44 53.82-3.75 53.29-5.05 53.29-6.64L53.29-6.64Q53.29-8.3 53.96-9.89 54.63-11.47 56.21-12.72 57.78-13.96 60.37-14.73 62.96-15.5 66.77-15.5L66.77-15.5 68.55-15.5 68.55-17.5Q68.55-18.58 68.18-19.43 67.82-20.29 67.16-20.9 66.5-21.51 65.58-21.83 64.67-22.14 63.54-22.14L63.54-22.14Q62.67-22.14 61.66-21.94 60.66-21.73 59.69-21.36 58.71-21 57.78-20.5 56.86-20 56.12-19.41L56.12-19.41 55.68-19.65 54.56-23.75Q57.51-25.29 60.05-25.83 62.59-26.37 64.81-26.37L64.81-26.37Q67.11-26.37 68.9-25.9 70.7-25.44 71.94-24.48 73.19-23.51 73.84-22.03 74.48-20.56 74.48-18.53L74.48-18.53 74.48-6.57Q74.48-6.2 74.54-5.76 74.6-5.32 74.79-4.93 74.97-4.54 75.32-4.27 75.68-4 76.26-4L76.26-4Q76.61-4 77.09-4.1 77.58-4.2 78.07-4.42L78.07-4.42 78.07-1.49Q76.75-0.59 75.45-0.05 74.14 0.49 72.9 0.49L72.9 0.49Q71.92 0.49 71.21 0.12 70.5-0.24 70.01-0.84 69.53-1.44 69.2-2.21 68.87-2.98 68.65-3.81ZM68.55-6.96L68.55-12.62 67.01-12.62Q64.47-12.62 62.92-12.27 61.37-11.91 60.52-11.29 59.66-10.67 59.38-9.85 59.1-9.03 59.1-8.08L59.1-8.08Q59.1-7.08 59.39-6.32 59.69-5.57 60.19-5.05 60.69-4.54 61.37-4.27 62.06-4 62.84-4L62.84-4Q63.42-4 64.06-4.14 64.69-4.27 65.39-4.61 66.08-4.96 66.87-5.52 67.65-6.08 68.55-6.96L68.55-6.96ZM88.79 0L79.53-25.88 86.08-25.88 91.18-8.98 92.23-4.49 92.72-4.49 93.72-8.98 98.89-25.88 104.48-25.88 95.21 0 88.79 0ZM130.24-5.32L130.24-2.37Q129.16-1.61 127.92-1.07 126.67-0.54 125.36-0.18 124.04 0.17 122.73 0.33 121.43 0.49 120.25 0.49L120.25 0.49Q117.54 0.49 115.21-0.34 112.88-1.17 111.16-2.78 109.44-4.39 108.46-6.75 107.49-9.11 107.49-12.16L107.49-12.16Q107.49-15.41 108.58-18.04 109.68-20.68 111.53-22.52 113.37-24.37 115.8-25.37 118.23-26.37 120.86-26.37L120.86-26.37Q123.06-26.37 124.95-25.65 126.85-24.93 128.22-23.51 129.6-22.09 130.39-19.97 131.17-17.85 131.17-15.04L131.17-15.04Q131.17-14.36 131.11-13.59 131.04-12.82 130.9-12.08L130.9-12.08 113.61-12.08Q113.61-10.11 114.31-8.59 115-7.08 116.27-6.07 117.54-5.05 119.33-4.53 121.11-4 123.26-4L123.26-4Q123.87-4 124.68-4.05 125.5-4.1 126.43-4.25 127.36-4.39 128.33-4.65 129.31-4.91 130.24-5.32L130.24-5.32ZM113.61-14.97L125.67-14.97Q125.67-16.75 125.22-18.09 124.77-19.43 123.99-20.34 123.21-21.24 122.17-21.69 121.13-22.14 119.94-22.14L119.94-22.14Q118.59-22.14 117.45-21.61 116.3-21.07 115.44-20.1 114.59-19.14 114.1-17.82 113.61-16.5 113.61-14.97L113.61-14.97ZM137.93 0L137.93-39.11 143.84-39.11 143.84 0 137.93 0ZM182.28-33.15L188.9-33.15 195.32-9.5 196.42-4.44 196.91-4.44 197.98-9.5 204.33-35.77 209.82-35.77 199.98 0 192.8 0 186.75-21.29 185.46-27.25 184.97-27.25 183.7-21.29 177.62 0 170.44 0 160.5-35.77 166.9-35.77 173.3-9.5 174.27-4.44 174.74-4.44 175.89-9.5 182.28-33.15ZM215.85 0L215.85-25.88 221.78-25.88 221.78 0 215.85 0ZM218.8-30.98L218.8-30.98Q218.02-30.98 217.38-31.24 216.73-31.49 216.25-31.93 215.78-32.37 215.52-32.98 215.26-33.59 215.26-34.3L215.26-34.3Q215.26-35.03 215.54-35.66 215.82-36.28 216.33-36.76 216.83-37.23 217.5-37.5 218.17-37.77 218.95-37.77L218.95-37.77Q219.71-37.77 220.34-37.5 220.98-37.23 221.44-36.78 221.9-36.33 222.17-35.71 222.44-35.08 222.44-34.38L222.44-34.38Q222.44-33.64 222.16-33.02 221.88-32.4 221.38-31.95 220.88-31.49 220.22-31.24 219.56-30.98 218.8-30.98ZM232.18-7.15L232.18-21.66 226.98-21.66 227.42-24.44Q229.35-24.93 230.51-25.54 231.67-26.15 232.44-27.04 233.21-27.93 233.78-29.21 234.35-30.49 235.11-32.32L235.11-32.32 237.94-32.32 237.94-25.88 247.24-25.88 246.19-21.66 238.11-21.66 238.11-8.33Q238.11-7.13 238.45-6.31 238.8-5.49 239.43-4.98 240.07-4.47 240.96-4.24 241.85-4 242.97-4L242.97-4Q244.04-4 245.11-4.2 246.17-4.39 247.12-4.76L247.12-4.76 247.12-1.78Q245.46-0.66 243.57-0.09 241.68 0.49 239.75 0.49L239.75 0.49Q236.06 0.49 234.12-1.51 232.18-3.52 232.18-7.15L232.18-7.15ZM253.81 0L253.81-39.11 259.72-39.11 259.72-21.7Q260.62-22.51 261.71-23.33 262.79-24.15 264-24.83 265.21-25.51 266.55-25.94 267.89-26.37 269.34-26.37L269.34-26.37Q271.09-26.37 272.53-25.71 273.97-25.05 275-23.85 276.02-22.66 276.59-20.97 277.15-19.29 277.15-17.24L277.15-17.24 277.15 0 271.22 0 271.22-16.58Q271.22-17.9 270.85-18.88 270.48-19.87 269.85-20.53 269.21-21.19 268.32-21.52 267.43-21.85 266.41-21.85L266.41-21.85Q264.6-21.85 262.99-20.92 261.38-20 259.72-18.48L259.72-18.48 259.72 0 253.81 0ZM296.65-35.77L302.7-35.77 302.7-13.38Q302.7-10.91 303.47-9.11 304.24-7.3 305.5-6.13 306.76-4.96 308.34-4.38 309.93-3.81 311.54-3.81L311.54-3.81Q313.2-3.81 314.68-4.39 316.16-4.98 317.26-6.13 318.35-7.28 319-9.01 319.65-10.74 319.65-13.06L319.65-13.06 319.65-35.77 324.87-35.77 324.87-13.4Q324.87-11.74 324.49-10.07 324.12-8.4 323.33-6.86 322.55-5.32 321.37-3.98 320.18-2.64 318.57-1.65 316.96-0.66 314.92-0.09 312.89 0.49 310.42 0.49L310.42 0.49Q307.34 0.49 304.8-0.43 302.26-1.34 300.45-3.13 298.63-4.91 297.64-7.51 296.65-10.11 296.65-13.48L296.65-13.48 296.65-35.77ZM332.1-1.22L333.15-5.66 333.59-5.93Q334.54-5.42 335.58-5 336.61-4.59 337.64-4.31 338.66-4.03 339.64-3.88 340.62-3.74 341.47-3.74L341.47-3.74Q343.69-3.74 344.95-4.66 346.21-5.59 346.21-7.03L346.21-7.03Q346.21-8.01 345.63-8.64 345.06-9.28 344.12-9.73 343.18-10.18 341.98-10.52 340.79-10.86 339.53-11.24 338.27-11.62 337.08-12.11 335.88-12.6 334.94-13.35 334-14.11 333.43-15.2 332.85-16.28 332.85-17.87L332.85-17.87Q332.85-19.65 333.62-21.22 334.39-22.78 335.82-23.91 337.25-25.05 339.29-25.71 341.32-26.37 343.86-26.37L343.86-26.37Q344.5-26.37 345.34-26.32 346.18-26.27 347.1-26.16 348.01-26.05 348.94-25.88 349.87-25.71 350.68-25.44L350.68-25.44 349.6-21.07 349.06-20.75Q348.33-21.12 347.49-21.39 346.65-21.66 345.8-21.81 344.96-21.97 344.17-22.06 343.38-22.14 342.77-22.14L342.77-22.14Q340.62-22.14 339.41-21.29 338.2-20.43 338.2-18.99L338.2-18.99Q338.2-17.99 338.79-17.35 339.37-16.7 340.31-16.25 341.25-15.8 342.47-15.47 343.69-15.14 344.95-14.76 346.21-14.38 347.43-13.89 348.65-13.4 349.59-12.65 350.53-11.89 351.11-10.79 351.7-9.69 351.7-8.08L351.7-8.08Q351.7-6.27 350.92-4.7 350.14-3.13 348.7-1.98 347.26-0.83 345.23-0.17 343.2 0.49 340.74 0.49L340.74 0.49Q338.71 0.49 336.44 0.05 334.17-0.39 332.1-1.22L332.1-1.22Z" opacity="1" transform="matrix(1,0,0,1,0,0)" fill="#e65728" class="undefined-text-1" data-fill-palette-color="secondary" id="text-1"></path></svg></g></svg></g></svg></g></svg></g><g transform="matrix(1,0,0,1,434.50159579206536,0)"><svg viewBox="0 0 140.47189377310488 154.6866958959327" height="154.6866958959327" width="140.47189377310488"><g><svg xmlns="http://www.w3.org/2000/svg" xmlns:xlink="http://www.w3.org/1999/xlink" version="1.1" x="0" y="0" viewBox="10.467002868652344 6.752997875213623 78.53299713134766 86.4800033569336" enable-background="new 0 0 100 100" xml:space="preserve" height="154.6866958959327" width="140.47189377310488" class="icon-icon-0" data-fill-palette-color="accent" id="icon-0"><path d="M61.086 59.727c-8.793 8.47-17.764 15.794-25.466 20.772-9.896 6.397-13.499 6.298-14.231 6.177-0.079-0.525-0.125-2.521 2.252-7.208-1.712-1.523-3.29-3.194-4.713-4.993-4.568 8.178-5.299 13.708-2.227 16.823 1.27 1.289 2.961 1.935 5.09 1.935 3.858 0 9.155-2.121 15.996-6.386 8.381-5.225 18.212-13.156 27.886-22.483l2.691 5.851c0.428-5.652 2.867-12.995 5.377-18.361-5.402 2.432-12.779 4.766-18.438 5.112L61.086 59.727z" fill="#e65728" data-fill-palette-color="accent"></path><path d="M71.344 17.36c-1.787 0.867-4.048 2.124-6.878 3.952-6.874 4.444-14.911 10.9-22.859 18.348l10.507 5.017-8.379 0.514c-5.756 0.352-13.121 2.873-17.679 4.924l-5.344 2.405 2.483-5.308c2.117-4.526 4.744-11.852 5.179-17.604l0.633-8.373 4.929 10.717c8.648-8.128 17.398-15.129 24.978-19.987-2.946-0.706-6.018-1.09-9.181-1.09-21.686 0-39.266 17.58-39.266 39.266 0 13.487 6.802 25.383 17.16 32.452 1.777-0.866 4.017-2.113 6.812-3.92 6.875-4.444 14.912-10.9 22.86-18.348l-10.508-5.018 8.379-0.513c5.756-0.353 13.121-2.874 17.679-4.925l5.344-2.406-2.483 5.308c-2.117 4.525-4.743 11.852-5.179 17.604l-0.633 8.373L64.97 68.034c-8.72 8.193-17.541 15.241-25.165 20.104 3.171 0.826 6.498 1.269 9.929 1.269C71.42 89.407 89 71.827 89 50.142 89 36.441 81.979 24.386 71.344 17.36z" fill="#e65728" data-fill-palette-color="accent"></path><path d="M37.82 40.26c8.794-8.47 17.765-15.794 25.467-20.773 9.896-6.397 13.498-6.297 14.23-6.177 0.079 0.525 0.125 2.522-2.252 7.208 1.713 1.524 3.29 3.195 4.714 4.994 4.567-8.178 5.299-13.708 2.227-16.824-1.27-1.289-2.961-1.935-5.09-1.935-3.858 0-9.155 2.121-15.996 6.386-8.382 5.225-18.212 13.156-27.887 22.483l-2.691-5.851c-0.427 5.651-2.867 12.995-5.377 18.361 5.403-2.432 12.78-4.766 18.438-5.112L37.82 40.26z" fill="#e65728" data-fill-palette-color="accent"></path></svg></g></svg></g></svg></g></svg><rect width="395.52" height="106.40783109327108" fill="none" stroke="none" visibility="hidden"></rect></g></svg></g></svg>